<svg version="1.1" viewBox="0 0 512 512" xmlns="http://www.w3.org/2000/svg"><g transform="translate(0 -540.36)"><g transform="matrix(.87891 0 0 .87891 31 96.434)"><circle cx="256" cy="796.36" r="256"/><path d="m256 572.36c-123.55 0-224 100.45-224 224 2.7e-5 33.639 7.4919 65.539 20.824 94.192l16.862-31.745c-6.5551-19.618-10.157-40.597-10.157-62.447 2.7e-5 -108.67 87.804-196.47 196.47-196.47 57.447 0 109.05 24.547 144.94 63.732h-95.89l-73.124 137.19 73.323 138.71h85.357c-35.141 33.049-82.453 53.312-134.61 53.312-48.235 0-92.335-17.331-126.49-46.074h-39.385c41.006 45.187 100.17 73.604 165.88 73.604 123.55 0 224-100.45 224-224s-100.45-224-224-224zm-66.645 119.84-120.6 227.03h194.63l-62.624-118.47 57.86-108.56h-69.269zm162.73 50.559v56.844l38.078-28.422 38.073-28.422v113.69l-38.073-28.422-38.078-28.422v56.844l-38.073-28.422-38.078-28.422 38.078-28.422 38.073-28.422z" color="#000000" color-rendering="auto" fill="#fff" image-rendering="auto" shape-rendering="auto" solid-color="#000000" style="isolation:auto;mix-blend-mode:normal;text-decoration-color:#000000;text-decoration-line:none;text-decoration-style:solid;text-indent:0;text-transform:none;white-space:normal"/><path d="m256 572.36c-123.55 0-224 100.45-224 224 2e-6 1.8172 0.10764 3.6087 0.15111 5.4155 3.1792-120.79 102.3-218.04 223.85-218.04v0.00444c121.64 0 220.82 97.389 223.86 218.31 0.04762-1.8964 0.14444-3.7811 0.14444-5.6889 0-123.55-100.45-224-224-224v-0.00444zm49.051 91.262-73.124 137.19 3.02 5.7133 70.104-131.53h95.888c-3.627-3.96-7.4555-7.7269-11.393-11.378h-84.495zm-115.7 28.578-120.6 227.03h6.0444l114.56-215.65h63.202l6.0644-11.378h-69.266zm-129.65 108.49c-0.082438 2.3439-0.17778 4.6845-0.17778 7.0489 0 19.166 2.9149 37.602 8.02 55.098l2.1378-4.0266c-6.1177-18.309-9.534-37.838-9.98-58.12zm223.85 4.6066-7.6222 5.6889 38.078 28.422 38.073 28.422v-11.378l-38.073-28.422-30.455-22.733zm76.149 0-7.62 5.6866v0.00223l38.078 28.422 38.073 28.422v-11.378l-38.073-28.422-30.458-22.733zm-155.92 1.1778-3.02 5.6644 56.611 107.09h6.0133l-59.604-112.76zm-113.66 140.29c3.5748 3.9394 7.3368 7.701 11.18 11.378h28.204c34.155 28.743 78.256 46.073 126.49 46.073 52.157 0 99.47-20.262 134.61-53.311h-13.244c-33.39 26.254-75.501 41.933-121.37 41.933-48.235 0-92.336-17.33-126.49-46.073h-39.384z" opacity=".3" style="isolation:auto;mix-blend-mode:normal;text-decoration-color:#000000;text-decoration-line:none;text-decoration-style:solid;text-indent:0;text-transform:none;white-space:normal"/></g></g></svg>
